<svg width="21" height="36" viewBox="0 0 21 36" fill="none" xmlns="http://www.w3.org/2000/svg">
<path fill-rule="evenodd" clip-rule="evenodd" d="M10.1406 0.638428C10.8068 0.638428 11.3469 1.1785 11.3469 1.84471V34.2804C11.3469 34.9466 10.8068 35.4867 10.1406 35.4867C9.4744 35.4867 8.93433 34.9466 8.93433 34.2804V1.84471C8.93433 1.1785 9.4744 0.638428 10.1406 0.638428Z" fill="white"/>
<path fill-rule="evenodd" clip-rule="evenodd" d="M1.953 8.40044C3.14698 7.20647 4.76631 6.53577 6.45478 6.53577H17.5124C18.1786 6.53577 18.7187 7.07584 18.7187 7.74205C18.7187 8.40826 18.1786 8.94833 17.5124 8.94833H6.45478C5.40612 8.94833 4.40043 9.36488 3.6589 10.1064L3.65887 10.1065C2.91738 10.8479 2.50082 11.8535 2.50082 12.9022C2.50082 13.9508 2.91736 14.9565 3.65887 15.698C3.65888 15.6981 3.65889 15.6981 3.6589 15.6981M18.3283 18.7209C19.5223 19.9148 20.193 21.5342 20.193 23.2227C20.193 24.9111 19.5223 26.5305 18.3283 27.7244C17.1343 28.9184 15.5149 29.5891 13.8265 29.5891H1.29454C0.628328 29.5891 0.0882568 29.0491 0.0882568 28.3828C0.0882568 27.7166 0.628328 27.1766 1.29454 27.1766H13.8265C14.8751 27.1766 15.8808 26.76 16.6223 26.0185L16.6224 26.0184C17.3639 25.277 17.7804 24.2713 17.7804 23.2227C17.7804 22.1739 17.3638 21.1683 16.6224 20.4268L16.6223 20.4268C15.8808 19.6853 14.8751 19.2687 13.8265 19.2687H6.45478C4.76625 19.2687 3.14694 18.5979 1.953 17.4041L1.95296 17.404C0.758968 16.21 0.0882568 14.5907 0.0882568 12.9022C0.0882568 11.2138 0.75895 9.5944 1.95296 8.40047M18.3283 18.7209C17.1343 17.5269 15.5149 16.8562 13.8265 16.8562H6.45478C5.40618 16.8562 4.40047 16.4396 3.6589 15.6981" fill="white"/>
</svg>
